<?xml version="1.0" standalone="no"?>
<!DOCTYPE svg PUBLIC "-//W3C//DTD SVG 20010904//EN" "http://www.w3.org/TR/2001/REC-SVG-20010904/DTD/svg10.dtd">
<svg version="1.0" xmlns="http://www.w3.org/2000/svg"
    width="400pt" height="400pt" viewBox="0 0 400.000000 400.000000"
    preserveAspectRatio="xMidYMid meet">

    <g transform="translate(0.000000,400.000000) scale(0.100000,-0.100000)"
        fill="#2FA84F" stroke="#0F1720" stroke-width="6" stroke-linejoin="round">
        <path
            d="M1118 3225 c-12 -13 15 -127 47 -192 79 -160 242 -252 449 -253 l68
            0 -6 -27 c-4 -16 -10 -92 -13 -170 l-6 -143 -498 0 -499 0 0 -38 c0 -40 26
            -125 54 -179 8 -17 38 -56 67 -87 58 -64 160 -120 248 -136 29 -6 184 -10 342
            -10 l289 0 0 -47 c0 -90 21 -177 67 -272 75 -156 208 -270 383 -327 48 -15
            104 -18 420 -22 254 -2 383 0 425 8 189 37 339 198 361 385 l7 55 -555 2 -555
            3 -36 28 c-47 36 -64 70 -68 132 l-3 50 364 6 c362 5 366 5 446 32 198 66 362
            242 408 437 20 83 20 217 1 299 -40 168 -169 327 -330 407 -129 64 -136 64
            -1049 64 -453 0 -825 -2 -828 -5z m1691 -465 c79 -40 111 -143 71 -223 -12
            -25 -37 -56 -54 -69 l-31 -23 -345 0 -344 0 3 104 c4 137 17 170 86 212 27 17
            55 19 303 19 252 0 276 -2 311 -20z" />
        <path
            d="M2161 1190 c-116 -50 -169 -187 -113 -297 85 -165 298 -164 385 2 47
            89 16 208 -71 269 -36 25 -54 31 -110 33 -37 2 -78 -2 -91 -7z" />
        <path
            d="M2810 1178 c-91 -49 -138 -164 -105 -258 51 -145 222 -195 338 -99
            113 93 108 260 -11 343 -35 25 -55 31 -110 34 -56 3 -75 0 -112 -20z" />
    </g>
</svg>